<?xml version="1.0" encoding="utf-8"?>
<!-- Generator: Adobe Illustrator 25.1.0, SVG Export Plug-In . SVG Version: 6.00 Build 0)  -->
<svg version="1.1" id="Capa_1" xmlns="http://www.w3.org/2000/svg" xmlns:xlink="http://www.w3.org/1999/xlink" x="0px" y="0px"
	 viewBox="0 0 841.89 595.28" style="enable-background:new 0 0 841.89 595.28;" xml:space="preserve">
<style type="text/css">
	.st0{fill:url(#SVGID_1_);}
	.st1{fill:none;}
	.st2{fill:url(#SVGID_2_);}
	.st3{fill:url(#SVGID_3_);}
	.st4{fill:url(#SVGID_4_);}
	.st5{fill:url(#SVGID_5_);}
	.st6{fill:url(#SVGID_6_);}
	.st7{fill:url(#SVGID_7_);}
	.st8{fill:url(#SVGID_8_);}
</style>
<g>
	<linearGradient id="SVGID_1_" gradientUnits="userSpaceOnUse" x1="230.59" y1="271.69" x2="562.62" y2="271.69">
		<stop  offset="0" style="stop-color:#324D9C"/>
		<stop  offset="1" style="stop-color:#E31F80"/>
	</linearGradient>
	<path class="st0" d="M380.6,310.75c-1.52,2.1-3.1,4.16-4.73,6.18c-10.68,13.27-23.69,24.97-38.43,34.44
		c8.83-3.44,17.38-8.2,25.22-14.23c9.3-7.12,17.6-16.02,24.38-26.39H380.6z M551.63,385.21l-54.77-135.3l-0.46-1.13l-10.35-25.54
		c-0.17,0.05-0.34,0.11-0.51,0.16c-0.12,0.03-0.23,0.07-0.35,0.11c-19.49,6.34-38.16,16.73-54.39,30.75
		c-0.72,0.62-1.43,1.24-2.14,1.88l19.43,53.19l0.26,0.71l0.26,0.71H341.67l14.16-39.47l19.83-55.29l18.99-52.95l9.92,27.17
		c12.27-8.29,25.6-14.53,39.32-18.58c0.11-0.03,0.21-0.06,0.31-0.09c6.36-1.86,12.79-3.25,19.24-4.17l-5.31-13.11
		c-4.4-11.56-8.02-20.79-10.87-27.71c-2.85-6.92-6.34-13.39-10.49-19.41c-4.15-6.02-9.61-10.95-16.36-14.77
		c-6.76-3.83-15.18-5.74-25.27-5.74c-9.93,0-18.27,1.91-25.03,5.74c-6.75,3.82-12.2,8.83-16.35,15.01
		c-4.15,6.19-8.06,13.96-11.72,23.32c-3.66,9.36-6.8,17.37-9.4,24.04l-53.13,134.9l-1.96,4.97l-20.2,51.29l-12.56,31.88l-1.39,3.53
		l-0.76,1.93l-1.55,3.93c-3.75,9.27-6.44,16.52-8.06,21.72c-1.63,5.21-2.44,10.26-2.44,15.14c0,0.26,0,0.53,0.01,0.79
		c-0.01,0.03-0.01,0.05,0,0.07c0.23,8.12,3.73,15.4,10.49,21.85c6.49,6.2,13.91,9.52,22.24,9.95c0.64,0.04,1.28,0.06,1.93,0.06
		c0.25,0,0.5,0,0.75-0.02c10.35-0.13,17.83-3.27,22.44-9.38c4.72-6.27,10.41-18.35,17.09-36.26l13.52-36.31l3.57-9.59h145.51
		l17.09,44.92c2.27,5.54,5,11.93,8.18,19.17c3.17,7.24,6.14,12.61,8.91,16.11c2.76,3.5,6.18,6.27,10.25,8.3
		c4.07,2.04,8.95,3.06,14.65,3.06c9.76,0,18.1-3.46,25.02-10.38s10.38-14.53,10.38-22.83C562.62,415.57,558.96,402.79,551.63,385.21
		z M380.6,310.75c-1.52,2.1-3.1,4.16-4.73,6.18c-10.68,13.27-23.69,24.97-38.43,34.44c8.83-3.44,17.38-8.2,25.22-14.23
		c9.3-7.12,17.6-16.02,24.38-26.39H380.6z"/>
</g>
<g>
	
		<rect x="361.91" y="260.17" transform="matrix(0.3757 -0.9267 0.9267 0.3757 -18.5917 500.1315)" class="st1" width="0" height="7.38"/>
	<linearGradient id="SVGID_2_" gradientUnits="userSpaceOnUse" x1="271.6736" y1="459.3845" x2="641.694" y2="59.7267">
		<stop  offset="0" style="stop-color:#324D9C"/>
		<stop  offset="0.4042" style="stop-color:#E31F80"/>
	</linearGradient>
	<path class="st2" d="M599.42,232.35l-0.35,0.94c-18.09-4.28-36.56-4.84-53.97-1.89c-17.43,2.92-33.79,9.32-47.96,18.32
		c-0.09,0.06-0.19,0.12-0.28,0.19c-0.15,0.09-0.3,0.19-0.46,0.3c-13.85,8.93-25.54,20.36-34.37,33.18
		c-5.8,8.4-10.36,17.38-13.68,26.65c-0.09,0.24-0.17,0.47-0.26,0.71v0.01c-0.17,0.47-0.34,0.94-0.5,1.42
		c-1.5,4.44-2.72,8.93-3.65,13.45c-3.51,13.56-8.79,26.91-15.75,39.56c-0.26,0.48-0.52,0.95-0.79,1.43
		c-3.89,6.93-8.29,13.65-13.18,20.05c-14.08,18.52-32.15,34.51-53.02,46.57c-20.86,12.06-44.54,20.2-69.43,23.39
		c-8.48,1.1-17.1,1.61-25.76,1.53c-0.89,0.01-1.79-0.01-2.68-0.04c-8.33-0.43-15.75-3.75-22.24-9.95c-7-6.68-10.5-14.24-10.5-22.71
		c0-0.19,0-0.38,0.01-0.57c-0.01-0.02-0.01-0.04,0-0.07c0.06-4.68,0.87-9.52,2.43-14.5c1.62-5.2,4.31-12.45,8.06-21.72l1.55-3.93
		l0.54-1.37l0.22-0.56l0.47-1.2l0.01-0.01l0.91-2.32l0.56-1.43l12-30.45c9.25,5.44,19.68,9.28,30.93,11.04
		c12.09,1.9,25.09,1.35,37.9-1.94c1.9-0.49,3.78-1.03,5.66-1.63c0.01,0.01,0.02,0,0.03-0.01c1.87-0.61,3.72-1.27,5.57-1.99
		c8.83-3.44,17.38-8.2,25.22-14.23c9.3-7.12,17.6-16.02,24.38-26.39c0.31-0.47,0.62-0.95,0.93-1.43c1.02-1.6,2-3.25,2.94-4.93
		c8.08-16.23,18.69-30.95,31.12-43.4l0.01-0.01c0.23-0.23,0.45-0.45,0.68-0.68c1.81-1.8,3.66-3.55,5.54-5.24
		c0.13-0.12,0.26-0.24,0.4-0.35c0.71-0.64,1.42-1.26,2.14-1.88c16.23-14.02,34.9-24.41,54.39-30.75c0.12-0.04,0.23-0.08,0.35-0.11
		c0.17-0.05,0.34-0.11,0.51-0.16c19.24-6.14,39.26-8.35,58.52-6.74C564.13,218.11,582.85,223.69,599.42,232.35z"/>
</g>
<g>
	
		<rect x="370.3" y="188.92" transform="matrix(0.3757 -0.9267 0.9267 0.3757 53.0133 463.1996)" class="st1" width="0" height="6.66"/>
	<linearGradient id="SVGID_3_" gradientUnits="userSpaceOnUse" x1="242.64" y1="382.755" x2="254.09" y2="382.755">
		<stop  offset="0" style="stop-color:#324D9C"/>
		<stop  offset="1" style="stop-color:#E31F80"/>
	</linearGradient>
	<path class="st3" d="M254.09,384.2c-3.82-0.19-7.64-0.51-11.45-0.96l0.76-1.93c0.42,0.21,0.84,0.4,1.26,0.58
		c0.42,0.18,0.85,0.36,1.28,0.51c0.43,0.16,0.87,0.32,1.31,0.46c0.43,0.14,0.88,0.27,1.32,0.39
		C250.36,383.73,252.2,384.05,254.09,384.2z"/>
	<linearGradient id="SVGID_4_" gradientUnits="userSpaceOnUse" x1="243.4" y1="323.4185" x2="422.03" y2="323.4185">
		<stop  offset="0" style="stop-color:#324D9C"/>
		<stop  offset="1" style="stop-color:#E31F80"/>
	</linearGradient>
	<path class="st4" d="M422.03,262.42c-0.7,2.27-1.33,4.56-1.87,6.85c-3.63,12.59-8.97,24.93-15.92,36.53
		c-1,1.67-2.03,3.32-3.09,4.95c-2.86,4.4-5.96,8.68-9.29,12.8c-13.15,16.34-29.83,30.3-48.94,40.65c-0.62,0.33-1.24,0.67-1.86,0.99
		c-7.04,3.7-14.4,6.91-22,9.59c-12.54,4.43-25.74,7.42-39.3,8.78c-7.67,0.78-15.46,1.03-23.26,0.74c-0.8-0.01-1.61-0.05-2.41-0.1
		c-1.89-0.15-3.73-0.47-5.52-0.95c-0.44-0.12-0.89-0.25-1.32-0.39c-0.44-0.14-0.88-0.3-1.31-0.46c-0.43-0.16-0.86-0.33-1.28-0.51
		c-0.26-0.12-0.52-0.24-0.78-0.36c-0.16-0.07-0.32-0.14-0.48-0.22l1.39-3.53l12.56-31.88l20.2-51.29c0.49,0.11,1,0.21,1.5,0.3
		c10.85,2.01,22.58,1.84,34.21-0.81c11.61-2.65,23.07-7.75,33.32-15.19c3.21-2.32,6.3-4.87,9.25-7.63l-14.16,39.47h46.3
		c1.02-1.6,2-3.25,2.94-4.93C398.99,289.59,409.6,274.87,422.03,262.42z"/>
	<linearGradient id="SVGID_5_" gradientUnits="userSpaceOnUse" x1="467.07" y1="185.6773" x2="562.62" y2="185.6773">
		<stop  offset="0" style="stop-color:#324D9C"/>
		<stop  offset="1" style="stop-color:#E31F80"/>
	</linearGradient>
	<path class="st5" d="M562.62,189.05l-0.34,0.84c-16.2-4.3-32.83-5.27-48.6-3.04c-13.35,1.86-26.07,5.98-37.54,11.91l-4.73-11.7
		l-4.34-10.72c15.48-3.68,31.29-4.63,46.51-2.93c9.47,1.04,18.69,3.11,27.48,6.1C548.6,182.05,555.82,185.25,562.62,189.05z"/>
</g>
<g>
	
		<rect x="354.3" y="182.31" transform="matrix(0.3757 -0.9267 0.9267 0.3757 49.1595 444.2457)" class="st1" width="0" height="6.66"/>
	<linearGradient id="SVGID_6_" gradientUnits="userSpaceOnUse" x1="244.79" y1="296.8917" x2="380.6" y2="296.8917">
		<stop  offset="0" style="stop-color:#324D9C"/>
		<stop  offset="1" style="stop-color:#E31F80"/>
	</linearGradient>
	<path class="st6" d="M380.6,310.75c-1.52,2.1-3.1,4.16-4.73,6.18c-10.68,13.27-23.69,24.97-38.43,34.44
		c-3.42,2.2-6.92,4.27-10.52,6.22c-19.1,10.35-40.65,17.1-63.16,19.35c-6.27,0.64-12.61,0.92-18.97,0.84l12.56-31.88l20.2-51.29
		l1.96-4.97c5.85-0.09,11.82-0.8,17.76-2.15c11.6-2.65,23.07-7.76,33.32-15.2c8.56-6.18,16.26-14,22.63-23.18
		c1.28-1.82,2.49-3.7,3.65-5.63c5.27-9.91,11.6-19.14,18.79-27.49l-19.83,55.29l-14.16,39.47H380.6z"/>
	<linearGradient id="SVGID_7_" gradientUnits="userSpaceOnUse" x1="404.57" y1="208.905" x2="476.14" y2="208.905">
		<stop  offset="0" style="stop-color:#324D9C"/>
		<stop  offset="1" style="stop-color:#E31F80"/>
	</linearGradient>
	<path class="st7" d="M476.14,198.76c-2.09,1.08-4.14,2.22-6.14,3.41c-0.23,0.14-0.45,0.28-0.68,0.42
		c-12.7,7.71-23.52,17.72-31.8,29.05c-4.36,5.96-8.01,12.27-10.95,18.8l-7.82-21.42l-8.86-24.25l-5.32-14.56
		c12.27-8.29,25.6-14.53,39.32-18.58c0.11-0.03,0.21-0.06,0.31-0.09c6.36-1.86,12.79-3.25,19.24-4.17l3.63,8.97l4.34,10.72
		L476.14,198.76z"/>
	<linearGradient id="SVGID_8_" gradientUnits="userSpaceOnUse" x1="463.44" y1="176.5206" x2="546.63" y2="176.5206">
		<stop  offset="0" style="stop-color:#324D9C"/>
		<stop  offset="1" style="stop-color:#E31F80"/>
	</linearGradient>
	<path class="st8" d="M546.63,182.44l-0.34,0.84c-16.2-4.31-32.84-5.27-48.6-3.05c-9.12,1.27-17.95,3.6-26.28,6.83l-4.34-10.72
		l-3.63-8.97c11.46-1.64,22.96-1.82,34.14-0.58c15.41,1.7,30.16,6.12,43.48,12.72C542.94,180.44,544.8,181.42,546.63,182.44z"/>
</g>
</svg>
